# xmcd
#
# Track frame offsets: 
#        150
#        13249
#        24011
#        40283
#        51917
#        66215
#        76292
#        90584
#        103531
#        115062
#        126790
#        141487
#
# Disc length: 2030 seconds
#
# Revision: 0
# Processed by: cddbd v1.5.2PL0 Copyright (c) Steve Scherf et al.
# Submitted via: ExactAudioCopy v0.99pb5
#
DISCID=9a07ec0c
DTITLE=Charlie Waller and the Country Gentlemen - Crying in the Chapel
DYEAR=2001
DGENRE=Bluegrass
TTITLE0=Crying in the Chapel 
TTITLE1=I Feel Like Traveling On 
TTITLE2=Heaven Got an Angel
TTITLE3=Don't You Know That I'm Happy 
TTITLE4=Nobody's Child 
TTITLE5=I'll Never Die Just Be Promoted 
TTITLE6=She Wore Pretty Dresses 
TTITLE7=Jericho Road
TTITLE8=The Coal Mines is a Good Place to Pray
TTITLE9=City of God
TTITLE10=Keep Following Moses
TTITLE11=Two Men a Walkin' 
EXTD=
EXTT0=
EXTT1=
EXTT2=
EXTT3=
EXTT4=
EXTT5=
EXTT6=
EXTT7=
EXTT8=
EXTT9=
EXTT10=
EXTT11=
PLAYORDER=
